<?xml version="1.0" encoding="utf-8"?>
<!-- Generator: Adobe Illustrator 21.0.2, SVG Export Plug-In . SVG Version: 6.00 Build 0)  -->
<svg version="1.1" id="Layer_1" xmlns="http://www.w3.org/2000/svg" xmlns:xlink="http://www.w3.org/1999/xlink" x="0px" y="0px"
	 viewBox="0 0 621 612" style="enable-background:new 0 0 621 612;" xml:space="preserve">
<style type="text/css">
	.st0{opacity:0.9;fill-rule:evenodd;clip-rule:evenodd;fill:#E82E92;}
	.st1{opacity:0.9;fill-rule:evenodd;clip-rule:evenodd;fill:#F04E34;}
	.st2{opacity:0.9;fill-rule:evenodd;clip-rule:evenodd;fill:#F57F31;}
	.st3{opacity:0.9;fill-rule:evenodd;clip-rule:evenodd;fill:#A04F8D;}
	.st4{opacity:0.9;fill-rule:evenodd;clip-rule:evenodd;fill:#883C6E;}
</style>
<g id="logo_colorida_4_">
	<path class="st0" d="M278,225.4c8.4,19.3,6.5,41.4-5.1,58.9c-21,31.9-29.8,70.4-24.6,108.3c4.4,31.7,29.9,56.2,61.8,59.3
		c31.8,3.1,61.6-16.1,71.9-46.4c9-26.1,7.2-54.6-4.6-79.5c-8.2-17.2-5.4-37.6,7-52c3.7-4.4,4.6-10.5,2.3-15.8
		c-2.3-5.2-7.5-8.7-13.2-8.8c-5.7-0.1-11,3.1-13.6,8.2c-12.2,24.5-11.5,53.4,1.9,77.3c12.5,22.2,13.1,49.3,1.6,72
		c-10.5,20.8-33.6,32.1-56.5,27.8c-22.9-4.3-40.2-23.3-42.5-46.5c-2.8-28.1,4.8-56.1,21.4-79.1c19.2-26.7,26.7-60.2,20.7-92.6
		c-1-5.7-5.3-10.2-10.9-11.7c-5.5-1.5-11.5,0.4-15.3,4.7C276.7,213.9,275.8,220.1,278,225.4L278,225.4z"/>
	<path class="st1" d="M237.5,218.6c3.7,18.9,14.3,35.8,29.7,47.3c40.4,30.4,62.5,79.1,58.9,129.5c-1.2,16.1-11.9,30-27.2,35.3
		c-15.3,5.2-32.3,0.9-43.1-11.2c-10.8-12-13.4-29.3-6.6-44c15.1-32.8,9-71.5-15.7-97.9c-5.4-5.7-13.7-7.5-21-4.5
		c-7.2,3.1-11.9,10.3-11.5,18.1c0.3,7.8,5.4,14.7,13,17.1c9.6,3.1,17.3,10.4,21,19.8c3.7,9.4,3.1,19.9-1.9,28.7
		c-12.8,23-9.7,51.6,7.6,71.4c17.4,19.8,45.3,26.5,69.8,16.8c24.5-9.7,40.2-33.7,39.2-60c-1.8-53.2-25.8-103.2-66.3-137.9
		c-8.7-7.5-13.2-18.7-12-30.2c0.7-6.7-2.6-13.2-8.5-16.6c-5.8-3.4-13.1-3.1-18.6,0.9c-5.4,3.8-8.1,10.3-6.9,16.8
		C237.4,218.3,237.4,218.4,237.5,218.6L237.5,218.6z"/>
	<path class="st2" d="M306.8,172.7c-1.3,6,0.9,12.3,5.7,16.3c62.5,50.8,87.4,134.8,62.7,211.6c-6.2,19.3-24.2,32.4-44.5,32.3
		c-20.3,0-38.3-13.1-44.5-32.5c-6.2-19.3,0.8-40.5,17.3-52.3c23.1-16.5,36.3-43.4,35.3-71.8c-0.2-6.3-4-11.9-9.8-14.5
		c-5.8-2.5-12.5-1.6-17.3,2.5c-4.8,4-6.9,10.5-5.4,16.6c5,19.3-1.5,39.9-16.7,52.8c-23,19.5-29.7,52.1-16.4,79.1
		c13.3,27.1,43.2,41.7,72.7,35.4c25.1-5.3,44.3-24.6,50.2-48.8c0.1-0.6,0.3-1.3,0.4-1.9c18.5-82.9-4.3-169.6-61.5-232.6
		c-4.1-4.6-10.5-6.5-16.5-4.9C312.6,161.8,308,166.6,306.8,172.7L306.8,172.7z"/>
	<path class="st3" d="M189,193.1c13.4,19.4,18.1,43.5,13.3,66.7c-9.5,44.6-3.1,91.2,18.1,131.7c22.9,44,72.1,67.6,120.7,57.9
		c48.6-9.6,85.2-50.1,89.8-99.5c5.1-54.6-2-109.7-20.7-161.2c-2.2-6-7.5-10.2-13.9-10.9c-6.3-0.6-12.5,2.4-15.8,7.8
		c-3.4,5.4-3.3,12.2,0.1,17.6c31.6,50,40.3,111.2,23.5,168c-9.8,33.2-38.1,57.7-72.4,62.6c-33.8,4.9-67.4-10.2-86.2-38.6
		c-0.3-0.4-0.5-0.8-0.8-1.3c-23.3-36.4-30.6-80.8-20.1-122.8c0-0.1,0-0.1,0-0.1c7.8-31.1,4.7-63.9-8.8-93c-2.5-5.3-7.7-8.7-13.5-9
		c-5.8-0.1-11.3,2.9-14,8.1C185.4,182,185.7,188.3,189,193.1L189,193.1z"/>
	<path class="st4" d="M165.4,238.4c-22.8,57.6-9.6,123.1,33.7,167.3c43.3,44.1,108.6,58.5,166.5,36.7
		c57.9-21.8,97.5-75.7,100.9-137.5c0.4-5.9-2.6-11.5-7.6-14.6c-5.1-3.1-11.4-3.1-16.5-0.1c-5.1,3.1-8.1,8.6-7.8,14.5
		c2.2,52.9-28.8,101.4-77.7,121.8c-48.8,20.3-105.1,8-140.9-30.9c-35.9-38.8-43.7-96-19.6-143c2.8-5.6,2.4-12.3-1.2-17.5
		s-9.7-8-15.9-7.2C173.1,228.5,167.8,232.5,165.4,238.4L165.4,238.4z"/>
</g>
</svg>
