<?xml version="1.0" encoding="utf-8"?>
<!-- Generator: Adobe Illustrator 21.0.2, SVG Export Plug-In . SVG Version: 6.00 Build 0)  -->
<svg version="1.1" id="Layer_1" xmlns="http://www.w3.org/2000/svg" xmlns:xlink="http://www.w3.org/1999/xlink" x="0px" y="0px"
	 viewBox="0 0 621 612" style="enable-background:new 0 0 621 612;" xml:space="preserve">
<style type="text/css">
	.st0{fill:#EF4823;}
	.st1{fill:#55479D;}
	.st2{fill:#42B980;}
	.st3{fill:#EF9721;}
	.st4{fill:#97459A;}
	.st5{fill:#E3482E;}
	.st6{fill:#08A97D;}
	.st7{fill:#FBAA19;}
</style>
<g>
	<polygon class="st0" points="286.2,361.5 345.3,361.5 322,349 262.9,349 	"/>
	<polygon class="st0" points="289.6,303.4 329.9,303.4 314,294.9 273.8,294.9 	"/>
	<polygon class="st0" points="293.5,267.6 317.6,267.6 308.1,262.5 284,262.5 	"/>
	<rect x="286.2" y="361.5" class="st1" width="59.1" height="79.4"/>
	<rect x="289.6" y="303.4" class="st1" width="40.2" height="54.1"/>
	<rect x="293.5" y="267.6" class="st1" width="24.1" height="32.5"/>
	<polygon class="st2" points="262.9,428.4 286.2,440.9 286.2,361.5 262.9,349 	"/>
	<polygon class="st2" points="273.8,349 289.6,357.5 289.6,303.4 273.8,294.9 	"/>
	<polygon class="st2" points="284,294.9 293.5,300 293.5,267.6 284,262.5 	"/>
	<rect x="332.2" y="367.4" class="st3" width="6.6" height="5.9"/>
	<rect x="319" y="367.4" class="st3" width="6.6" height="5.9"/>
	<rect x="305.9" y="367.4" class="st3" width="6.6" height="5.9"/>
	<rect x="292.8" y="367.4" class="st3" width="6.6" height="5.9"/>
	<rect x="332.2" y="379.2" class="st3" width="6.6" height="5.9"/>
	<rect x="319" y="379.2" class="st3" width="6.6" height="5.9"/>
	<rect x="305.9" y="379.2" class="st3" width="6.6" height="5.9"/>
	<rect x="292.8" y="379.2" class="st3" width="6.6" height="5.9"/>
	<rect x="332.2" y="391" class="st3" width="6.6" height="5.9"/>
	<rect x="319" y="391" class="st3" width="6.6" height="5.9"/>
	<rect x="305.9" y="391" class="st3" width="6.6" height="5.9"/>
	<rect x="292.8" y="391" class="st3" width="6.6" height="5.9"/>
	<rect x="332.2" y="402.8" class="st3" width="6.6" height="5.9"/>
	<rect x="319" y="402.8" class="st3" width="6.6" height="5.9"/>
	<rect x="305.9" y="402.8" class="st3" width="6.6" height="5.9"/>
	<rect x="292.8" y="402.8" class="st3" width="6.6" height="5.9"/>
	<rect x="332.2" y="414.6" class="st3" width="6.6" height="5.9"/>
	<rect x="319" y="414.6" class="st3" width="6.6" height="5.9"/>
	<rect x="305.9" y="414.6" class="st3" width="6.6" height="5.9"/>
	<rect x="292.8" y="414.6" class="st3" width="6.6" height="5.9"/>
	<rect x="332.2" y="426.5" class="st3" width="6.6" height="5.9"/>
	<rect x="319" y="426.5" class="st3" width="6.6" height="5.9"/>
	<rect x="305.9" y="426.5" class="st3" width="6.6" height="5.9"/>
	<rect x="292.8" y="426.5" class="st3" width="6.6" height="5.9"/>
	<rect x="320.9" y="307.5" class="st3" width="4.5" height="4"/>
	<rect x="312" y="307.5" class="st3" width="4.5" height="4"/>
	<rect x="303" y="307.5" class="st3" width="4.5" height="4"/>
	<rect x="294.1" y="307.5" class="st3" width="4.5" height="4"/>
	<rect x="320.9" y="315.5" class="st3" width="4.5" height="4"/>
	<rect x="312" y="315.5" class="st3" width="4.5" height="4"/>
	<rect x="303" y="315.5" class="st3" width="4.5" height="4"/>
	<rect x="294.1" y="315.5" class="st3" width="4.5" height="4"/>
	<rect x="320.9" y="323.6" class="st3" width="4.5" height="4"/>
	<rect x="312" y="323.6" class="st3" width="4.5" height="4"/>
	<rect x="303" y="323.6" class="st3" width="4.5" height="4"/>
	<rect x="294.1" y="323.6" class="st3" width="4.5" height="4"/>
	<rect x="320.9" y="331.6" class="st3" width="4.5" height="4"/>
	<rect x="312" y="331.6" class="st3" width="4.5" height="4"/>
	<rect x="303" y="331.6" class="st3" width="4.5" height="4"/>
	<rect x="294.1" y="331.6" class="st3" width="4.5" height="4"/>
	<rect x="320.9" y="339.6" class="st3" width="4.5" height="4"/>
	<rect x="312" y="339.6" class="st3" width="4.5" height="4"/>
	<rect x="303" y="339.6" class="st3" width="4.5" height="4"/>
	<rect x="294.1" y="339.6" class="st3" width="4.5" height="4"/>
	<rect x="320.9" y="347.7" class="st3" width="4.5" height="4"/>
	<rect x="312" y="347.7" class="st3" width="4.5" height="4"/>
	<rect x="303" y="347.7" class="st3" width="4.5" height="4"/>
	<rect x="294.1" y="347.7" class="st3" width="4.5" height="4"/>
	<path class="st3" d="M302.7,264.5h-1.1c0,0-0.1,0-0.1-0.1v-33.6c0,0,0-0.1,0.1-0.1h1.1c0,0,0.1,0,0.1,0.1L302.7,264.5
		C302.7,264.5,302.7,264.5,302.7,264.5"/>
	<polygon class="st2" points="360.1,344.5 395.6,344.5 373.8,332.8 338.2,332.8 	"/>
	<polygon class="st4" points="360.1,344.5 360.1,455.6 338.2,443.9 338.2,332.8 	"/>
	<polygon class="st3" points="357,354.7 349.9,351 349.9,346.7 357,350.5 	"/>
	<polygon class="st3" points="357,363.2 349.9,359.4 349.9,355.2 357,359 	"/>
	<polygon class="st3" points="357,371.7 349.9,367.9 349.9,363.6 357,367.4 	"/>
	<polygon class="st3" points="357,380.1 349.9,376.3 349.9,372.1 357,375.9 	"/>
	<polygon class="st3" points="357,388.6 349.9,384.8 349.9,380.6 357,384.3 	"/>
	<polygon class="st3" points="357,397 349.9,393.3 349.9,389 357,392.8 	"/>
	<polygon class="st3" points="357,405.5 349.9,401.7 349.9,397.5 357,401.3 	"/>
	<polygon class="st3" points="357,414 349.9,410.2 349.9,406 357,409.7 	"/>
	<polygon class="st3" points="357,422.4 349.9,418.7 349.9,414.4 357,418.2 	"/>
	<polygon class="st3" points="357,430.9 349.9,427.1 349.9,422.9 357,426.7 	"/>
	<polygon class="st3" points="357,439.4 349.9,435.6 349.9,431.3 357,435.1 	"/>
	<polygon class="st3" points="348,350 341,346.2 341,341.9 348,345.7 	"/>
	<polygon class="st3" points="348,358.4 341,354.6 341,350.4 348,354.2 	"/>
	<polygon class="st3" points="348,366.9 341,363.1 341,358.9 348,362.6 	"/>
	<polygon class="st3" points="348,375.3 341,371.6 341,367.3 348,371.1 	"/>
	<polygon class="st3" points="348,383.8 341,380 341,375.8 348,379.6 	"/>
	<polygon class="st3" points="348,392.3 341,388.5 341,384.3 348,388 	"/>
	<polygon class="st3" points="348,400.7 341,397 341,392.7 348,396.5 	"/>
	<polygon class="st3" points="348,409.2 341,405.4 341,401.2 348,405 	"/>
	<polygon class="st3" points="348,417.7 341,413.9 341,409.6 348,413.4 	"/>
	<polygon class="st3" points="348,426.1 341,422.3 341,418.1 348,421.9 	"/>
	<polygon class="st3" points="348,434.6 341,430.8 341,426.6 348,430.3 	"/>
	<rect x="360.1" y="344.5" class="st1" width="35.6" height="111.1"/>
	<polygon class="st4" points="347.9,334.8 358.6,340.6 358.6,328.2 347.9,322.4 	"/>
	<polygon class="st4" points="355,334.8 365.8,340.6 365.8,320.4 355,314.6 	"/>
	<polygon class="st0" points="375.9,313.6 365.8,320.4 365.8,328.2 362.2,325.8 358.6,328.2 358.6,340.6 365.8,340.6 386,340.6 
		386,320.4 	"/>
	<polygon class="st2" points="351.4,320 362.2,325.8 358.6,328.2 347.9,322.4 	"/>
	<polygon class="st2" points="365.1,307.8 375.9,313.6 365.8,320.4 355,314.6 	"/>
	<rect x="373.2" y="327.6" class="st3" width="5.3" height="13"/>
	<rect x="360.8" y="332.6" class="st3" width="2.7" height="4"/>
	<rect x="363.8" y="332.6" class="st3" width="2.7" height="4"/>
	<polygon class="st2" points="351,413.1 341.5,416.2 341.5,451.5 360.4,461.5 360.4,426.3 	"/>
	<polygon class="st3" points="347,454.4 351.9,457 351.9,441.6 347,439 	"/>
	<polygon class="st0" points="351,413.1 360.4,426.3 395.6,426.3 386.2,413.1 	"/>
	<rect x="360.4" y="426.3" class="st4" width="35.3" height="35.3"/>
	<rect x="378.4" y="437.2" class="st3" width="7" height="13.4"/>
	<rect x="370.6" y="437.2" class="st3" width="7" height="13.4"/>
	<polygon class="st1" points="321.9,456.2 333.7,462.5 333.7,440.4 321.9,434.1 	"/>
	<polygon class="st3" points="325,457.8 328.3,459.6 328.3,447.8 325,446 	"/>
	<polygon class="st4" points="344.7,433 355.7,440.4 355.7,462.5 333.7,462.5 333.7,440.4 	"/>
	<polygon class="st5" points="332.9,426.7 344.7,433 333.7,440.4 321.9,434.1 	"/>
	<rect x="341.8" y="453.8" class="st3" width="5.7" height="8.6"/>
	<polygon class="st6" points="264.8,390.7 264.8,445.9 253.9,440.1 253.9,384.9 	"/>
	<rect x="236.2" y="384.9" class="st0" width="17.7" height="55.2"/>
	<polygon class="st1" points="236.2,384.9 225.4,379.1 243.1,379.1 260.7,379.1 271.6,384.9 282.5,390.7 293.3,396.5 275.6,396.5 
		258,396.5 247.1,390.7 264.8,390.7 253.9,384.9 	"/>
	<polygon class="st0" points="275.6,396.5 293.3,396.5 293.3,451.8 275.6,451.8 258,451.8 258,396.5 	"/>
	<polygon class="st4" points="258,396.5 258,451.8 247.1,445.9 247.1,390.7 	"/>
	<polygon class="st3" points="256.3,402.9 256.3,405.3 252.3,403.1 248.3,401 248.3,398.6 252.3,400.8 	"/>
	<polygon class="st3" points="256.3,407.7 256.3,410.1 252.3,407.9 248.3,405.8 248.3,403.4 252.3,405.5 	"/>
	<polygon class="st3" points="256.3,412.5 256.3,414.9 252.3,412.7 248.3,410.6 248.3,408.2 252.3,410.3 	"/>
	<polygon class="st3" points="256.3,417.3 256.3,419.7 252.3,417.5 248.3,415.4 248.3,413 252.3,415.1 	"/>
	<polygon class="st3" points="256.3,422 256.3,424.4 252.3,422.3 248.3,420.2 248.3,417.8 252.3,419.9 	"/>
	<polygon class="st3" points="256.3,426.8 256.3,429.2 252.3,427.1 248.3,425 248.3,422.6 252.3,424.7 	"/>
	<polygon class="st3" points="256.3,431.6 256.3,434 252.3,431.9 248.3,429.7 248.3,427.4 252.3,429.5 	"/>
	<polygon class="st3" points="256.3,436.4 256.3,438.8 252.3,436.7 248.3,434.5 248.3,432.1 252.3,434.3 	"/>
	<polygon class="st3" points="252.3,396 256.3,398.1 256.3,400.5 252.3,398.4 248.3,396.2 248.3,393.8 	"/>
	<polygon class="st3" points="256.3,446 256.3,448.4 252.3,446.3 248.3,444.1 248.3,441.7 252.3,443.9 	"/>
	<polygon class="st3" points="256.3,441.2 256.3,443.6 252.3,441.5 248.3,439.3 248.3,436.9 252.3,439.1 	"/>
	<polygon class="st4" points="236.2,384.9 236.2,440.1 225.4,434.3 225.4,379.1 	"/>
	<polygon class="st3" points="234.6,391.3 234.6,393.7 230.6,391.5 226.6,389.4 226.6,387 230.6,389.1 	"/>
	<polygon class="st3" points="234.6,396.1 234.6,398.4 230.6,396.3 226.6,394.2 226.6,391.8 230.6,393.9 	"/>
	<polygon class="st3" points="234.6,400.8 234.6,403.2 230.6,401.1 226.6,399 226.6,396.6 230.6,398.7 	"/>
	<polygon class="st3" points="234.6,405.6 234.6,408 230.6,405.9 226.6,403.8 226.6,401.4 230.6,403.5 	"/>
	<polygon class="st3" points="234.6,410.4 234.6,412.8 230.6,410.7 226.6,408.5 226.6,406.1 230.6,408.3 	"/>
	<polygon class="st3" points="234.6,415.2 234.6,417.6 230.6,415.5 226.6,413.3 226.6,410.9 230.6,413.1 	"/>
	<polygon class="st3" points="234.6,420 234.6,422.4 230.6,420.3 226.6,418.1 226.6,415.7 230.6,417.9 	"/>
	<polygon class="st3" points="234.6,424.8 234.6,427.2 230.6,425 226.6,422.9 226.6,420.5 230.6,422.7 	"/>
	<polygon class="st3" points="230.6,384.3 234.6,386.5 234.6,388.9 230.6,386.7 226.6,384.6 226.6,382.2 	"/>
	<polygon class="st3" points="234.6,434.4 234.6,436.8 230.6,434.6 226.6,432.5 226.6,430.1 230.6,432.2 	"/>
	<polygon class="st3" points="234.6,429.6 234.6,432 230.6,429.8 226.6,427.7 226.6,425.3 230.6,427.4 	"/>
	<polygon class="st4" points="309.9,432.8 324.1,432.8 311.6,426.1 309.9,426.1 	"/>
	<polygon class="st2" points="309.9,419.8 309.9,432.8 324.1,432.8 324.1,462.5 309.9,462.5 278.2,462.5 278.2,419.8 	"/>
	<polygon class="st1" points="265.7,455.7 278.2,462.5 278.2,419.8 265.7,413.1 	"/>
	<polygon class="st4" points="278.2,419.8 309.9,419.8 297.4,413.1 265.7,413.1 	"/>
	<path class="st7" d="M261.5,190.2c0,22.4,18.2,40.6,40.6,40.6c22.4,0,40.6-18.2,40.6-40.6c0-22.4-18.2-40.6-40.6-40.6
		C279.7,149.5,261.5,167.7,261.5,190.2"/>
	<polygon class="st1" points="291.2,170.2 291.2,181.1 298.5,181.1 298.5,177.5 305.8,177.5 305.8,184.7 302.1,184.7 298.5,184.7 
		298.5,192 298.5,199.2 305.8,199.2 305.8,192 313,192 313,170.2 	"/>
	<rect x="298.5" y="202.9" class="st1" width="7.3" height="7.3"/>
</g>
</svg>
