<?xml version="1.0" encoding="utf-8"?>
<!-- Generator: Adobe Illustrator 21.0.2, SVG Export Plug-In . SVG Version: 6.00 Build 0)  -->
<svg version="1.1" id="Layer_1" xmlns="http://www.w3.org/2000/svg" xmlns:xlink="http://www.w3.org/1999/xlink" x="0px" y="0px"
	 viewBox="0 0 621 612" style="enable-background:new 0 0 621 612;" xml:space="preserve">
<style type="text/css">
	.st0{fill-rule:evenodd;clip-rule:evenodd;fill:#56C5D0;}
	.st1{opacity:0.7;fill-rule:evenodd;clip-rule:evenodd;fill:#A54686;}
</style>
<g>
	<path class="st0" d="M281.7,242.4l21.7,43.5c0,0.1,0.1,0.1,0.1,0.2l0,0c0.7,1.4,1.8,2.6,3.2,3.4c4,2.3,9,0.9,11.3-3
		c0.1-0.1,0.1-0.2,0.2-0.3l0,0l0,0l0,0l0,0c0-0.1,0.1-0.1,0.1-0.2l13.5-27l18.6-37.1l0.2-0.4c1.4-2.6,4.2-4.4,7.3-4.4
		c4.6,0,8.3,3.7,8.3,8.3v101.5v0.2v0.2c0,19-6.3,36.5-16.9,50.6c-15.4,20.5-40,33.8-67.7,33.8l-26.1,0l-26.1,0
		c-27.7,0-52.2-13.3-67.7-33.8c-10.6-14.1-16.9-31.6-16.9-50.6V327v-0.2V225.3c0-4.6,3.7-8.3,8.3-8.3c3.2,0,5.9,1.8,7.3,4.4l0.2,0.4
		l18.6,37.1l13.5,27c0,0.1,0.1,0.1,0.1,0.2l0,0l0,0l0,0l0,0c0.1,0.1,0.1,0.2,0.2,0.3c2.3,4,7.4,5.3,11.3,3c1.4-0.8,2.5-2,3.2-3.4
		l0,0c0-0.1,0.1-0.1,0.1-0.2l21.7-43.5l18.7-37.3l0,0l0,0l0.1-0.1c0.1-0.1,0.1-0.3,0.2-0.4c1.5-2.7,4.3-4.2,7.2-4.2
		c2.9,0,5.7,1.5,7.2,4.2c0.1,0.1,0.1,0.3,0.2,0.4l0.1,0.1l0,0l0,0L281.7,242.4z M263,205.1L263,205.1L263,205.1z M248.1,205.1
		L248.1,205.1C248.1,205.1,248.1,205.1,248.1,205.1z"/>
	<path class="st1" d="M263.6,409.7c0.5,0.4,1,0.8,1.6,1c1.1,0.6,2.4,0.9,3.6,0.9h0.1c66.3,0,132.6,0,198.9,0c4.6,0,8.3-3.7,8.3-8.3
		c0-3.1-1.8-6-4.6-7.4l-57-28.5h0c-1.1-0.5-2.1-1-3.2-1.6c-26.9-14.2-45.2-42.4-45.2-74.9v-65.5c0-4.6-3.7-8.3-8.3-8.3
		c-3.1,0-6,1.8-7.4,4.6c-29.7,59.3-59.3,118.6-89,177.9l0,0l0,0c0,0,0,0,0,0c-0.4,0.8-0.7,1.7-0.8,2.6c-0.1,1-0.1,1.9,0.1,2.9
		c0,0.1,0.1,0.2,0.1,0.4C261.4,407.1,262.3,408.5,263.6,409.7"/>
</g>
</svg>
